<?xml version="1.0" encoding="utf-8"?>
<!-- Generator: Adobe Illustrator 23.0.1, SVG Export Plug-In . SVG Version: 6.00 Build 0)  -->
<svg version="1.1" id="Layer_1" xmlns="http://www.w3.org/2000/svg" xmlns:xlink="http://www.w3.org/1999/xlink" x="0px" y="0px"
	 viewBox="0 0 1000 1000" style="enable-background:new 0 0 1000 1000;" xml:space="preserve">
<style type="text/css">
	.st0{fill:#F2BE3A;}
	.st1{fill:none;stroke:#F2BE3A;stroke-width:2;stroke-miterlimit:10;}
</style>
<g>
	<g>
		<g>
			<path class="st0" d="M303.43,580.56H202.86V418h21.51v143.26h79.06V580.56z"/>
			<path class="st0" d="M374.07,460.25c16.78,0,30.18,5.36,40.2,16.08c10.02,10.72,15.02,25.87,15.02,45.46
				c0,19.52-5.01,34.65-15.02,45.41c-10.02,10.75-23.42,16.13-40.2,16.13c-16.71,0-30.07-5.38-40.08-16.13
				c-10.02-10.76-15.03-25.89-15.03-45.41c0-19.59,5.01-34.74,15.03-45.46C344,465.61,357.36,460.25,374.07,460.25z M374.07,566.92
				c9.98,0,18.07-3.79,24.28-11.37c6.21-7.58,9.31-18.83,9.31-33.76c0-15.01-3.1-26.3-9.31-33.88c-6.21-7.58-14.3-11.36-24.28-11.36
				s-18.07,3.79-24.28,11.36c-6.21,7.58-9.31,18.87-9.31,33.88c0,14.93,3.1,26.19,9.31,33.76
				C355.99,563.13,364.09,566.92,374.07,566.92z"/>
			<path class="st0" d="M473.64,476.99c9.31-11.16,20.51-16.74,33.6-16.74c15.38,0,27.28,5.45,35.7,16.35
				c8.43,10.91,12.64,25.63,12.64,44.19c0,19.29-4.71,34.54-14.14,45.74c-9.43,11.2-21.31,16.8-35.65,16.8
				c-12.72,0-23.43-3.95-32.16-11.86v9.09h-20.96V418h20.96V476.99z M473.64,552.61c8.94,9.54,19.22,14.3,30.83,14.3
				c9.02,0,16.19-3.86,21.51-11.59c5.32-7.72,7.98-19.24,7.98-34.54c0-14.49-2.51-25.48-7.54-32.99
				c-5.03-7.5-12.05-11.26-21.07-11.26c-11.61,0-22.18,6.73-31.71,20.18V552.61z"/>
			<path class="st0" d="M599.94,476.99c9.31-11.16,20.51-16.74,33.6-16.74c15.37,0,27.27,5.45,35.7,16.35
				c8.43,10.91,12.64,25.63,12.64,44.19c0,19.29-4.71,34.54-14.14,45.74c-9.43,11.2-21.31,16.8-35.65,16.8
				c-12.72,0-23.44-3.95-32.16-11.86v9.09h-20.96V418h20.96V476.99z M599.94,552.61c8.94,9.54,19.22,14.3,30.83,14.3
				c9.01,0,16.19-3.86,21.51-11.59c5.32-7.72,7.98-19.24,7.98-34.54c0-14.49-2.51-25.48-7.54-32.99
				c-5.03-7.5-12.05-11.26-21.07-11.26c-11.61,0-22.18,6.73-31.71,20.18V552.61z"/>
		</g>
		<g>
			<path class="st0" d="M710.21,564.4c10.35,0,18.81-9.46,25.39-28.39l-44.46-117.65h22.62l31.16,92.03l31.16-92.03h22.62
				l-44.46,117.65c-4.29,11.24-7.93,19.9-10.92,26c-3,6.1-6.91,11.24-11.75,15.41c-4.84,4.17-10.77,6.26-17.8,6.26
				c-5.25,0-9.76-0.52-13.53-1.55v-19.29C703.48,563.88,706.81,564.4,710.21,564.4z"/>
		</g>
	</g>
	<line class="st1" x1="23" y1="335" x2="650" y2="335"/>
	<line class="st1" x1="198" y1="674.5" x2="962.5" y2="674.5"/>
	<line class="st1" x1="115" y1="418" x2="115" y2="646"/>
</g>
</svg>
