<?xml version="1.0" encoding="utf-8"?>
<!-- Generator: Adobe Illustrator 23.0.1, SVG Export Plug-In . SVG Version: 6.00 Build 0)  -->
<svg version="1.1" id="Layer_1" xmlns="http://www.w3.org/2000/svg" xmlns:xlink="http://www.w3.org/1999/xlink" x="0px" y="0px"
	 viewBox="0 0 1000 1000" style="enable-background:new 0 0 1000 1000;" xml:space="preserve">
<style type="text/css">
	.st0{fill:#FFFFFF;}
</style>
<g>
	<g>
		<path class="st0" d="M218.47,613.22H75v-231.9h30.69v204.37h112.78V613.22z"/>
		<path class="st0" d="M319.24,441.59c23.94,0,43.05,7.65,57.34,22.94c14.29,15.29,21.43,36.91,21.43,64.86
			c0,27.84-7.14,49.43-21.43,64.78c-14.29,15.34-33.41,23.01-57.34,23.01c-23.83,0-42.89-7.67-57.18-23.01
			c-14.29-15.35-21.43-36.94-21.43-64.78c0-27.95,7.14-49.56,21.43-64.86C276.34,449.23,295.4,441.59,319.24,441.59z M319.24,593.76
			c14.24,0,25.78-5.4,34.64-16.21c8.86-10.81,13.29-26.86,13.29-48.17c0-21.41-4.43-37.51-13.29-48.33
			c-8.86-10.81-20.41-16.21-34.64-16.21c-14.24,0-25.78,5.4-34.64,16.21c-8.86,10.81-13.29,26.92-13.29,48.33
			c0,21.3,4.43,37.36,13.29,48.17C293.45,588.36,305,593.76,319.24,593.76z"/>
		<path class="st0" d="M461.28,465.47c13.29-15.92,29.26-23.89,47.93-23.89c21.93,0,38.91,7.78,50.94,23.33
			c12.02,15.56,18.03,36.57,18.03,63.04c0,27.52-6.72,49.27-20.17,65.25c-13.45,15.97-30.4,23.96-50.86,23.96
			c-18.14,0-33.43-5.64-45.87-16.93v12.97h-29.9v-231.9h29.9V465.47z M461.28,573.36c12.76,13.6,27.42,20.41,43.98,20.41
			c12.86,0,23.09-5.51,30.69-16.53c7.59-11.02,11.39-27.44,11.39-49.27c0-20.67-3.59-36.36-10.76-47.06
			c-7.17-10.7-17.19-16.06-30.05-16.06c-16.56,0-31.64,9.6-45.24,28.79V573.36z"/>
		<path class="st0" d="M641.46,465.47c13.29-15.92,29.26-23.89,47.93-23.89c21.93,0,38.91,7.78,50.93,23.33
			c12.02,15.56,18.04,36.57,18.04,63.04c0,27.52-6.72,49.27-20.17,65.25c-13.45,15.97-30.4,23.96-50.86,23.96
			c-18.14,0-33.43-5.64-45.88-16.93v12.97h-29.9v-231.9h29.9V465.47z M641.46,573.36c12.76,13.6,27.42,20.41,43.98,20.41
			c12.86,0,23.09-5.51,30.68-16.53c7.59-11.02,11.39-27.44,11.39-49.27c0-20.67-3.58-36.36-10.76-47.06s-17.19-16.06-30.05-16.06
			c-16.56,0-31.64,9.6-45.24,28.79V573.36z"/>
	</g>
	<g>
		<path class="st0" d="M798.77,590.17c14.76,0,26.83-13.5,36.22-40.49l-63.43-167.83h32.27l44.45,131.29l44.45-131.29H925
			l-63.43,167.83c-6.12,16.03-11.31,28.39-15.58,37.09c-4.27,8.7-9.86,16.03-16.77,21.99c-6.91,5.96-15.37,8.94-25.39,8.94
			c-7.49,0-13.92-0.74-19.3-2.21v-27.52C789.18,589.43,793.92,590.17,798.77,590.17z"/>
	</g>
</g>
</svg>
