<svg id="Layer_1" data-name="Layer 1" xmlns="http://www.w3.org/2000/svg" viewBox="0 0 850 236.37"><defs><style>.cls-1{fill:#fff;}.cls-2{fill:#003537;}</style></defs><title>Lobby logo_halfcolor</title><path class="cls-1" d="M218.47,613.22H75V381.32h30.69V585.69H218.47Z" transform="translate(-75 -381.32)"/><path class="cls-1" d="M319.24,441.59q35.89,0,57.34,22.93T398,529.38q0,41.76-21.43,64.78t-57.34,23q-35.76,0-57.19-23t-21.43-64.78q0-41.91,21.43-64.86T319.24,441.59Zm0,152.17q21.35,0,34.64-16.21t13.28-48.17q0-32.11-13.28-48.33t-34.64-16.21q-21.36,0-34.65,16.21t-13.28,48.33q0,31.95,13.28,48.17T319.24,593.76Z" transform="translate(-75 -381.32)"/><path class="cls-1" d="M461.28,465.47q19.94-23.88,47.93-23.88,32.91,0,50.94,23.33t18,63q0,41.28-20.17,65.25t-50.85,24q-27.21,0-45.88-16.92v13H431.39V381.32h29.89Zm0,107.89q19.14,20.4,44,20.4,19.29,0,30.69-16.53T547.34,528q0-31-10.76-47.06t-30.06-16.06q-24.82,0-45.24,28.79Z" transform="translate(-75 -381.32)"/><path class="cls-2" d="M641.46,465.47q19.92-23.88,47.92-23.88,32.91,0,50.94,23.33t18,63q0,41.28-20.16,65.25t-50.86,24q-27.21,0-45.87-16.92v13h-29.9V381.32h29.9Zm0,107.89q19.13,20.4,44,20.4,19.29,0,30.69-16.53T727.5,528q0-31-10.75-47.06t-30-16.06q-24.84,0-45.24,28.79Z" transform="translate(-75 -381.32)"/><path class="cls-2" d="M798.77,590.17q22.15,0,36.23-40.5L771.57,381.84h32.27l44.44,131.29,44.45-131.29H925L861.57,549.67q-9.18,24-15.58,37.1a68.48,68.48,0,0,1-16.77,22q-10.37,8.93-25.38,8.93a74,74,0,0,1-19.31-2.21V588A46.65,46.65,0,0,0,798.77,590.17Z" transform="translate(-75 -381.32)"/></svg>