<?xml version="1.0" encoding="utf-8"?>
<!-- Generator: Adobe Illustrator 23.0.1, SVG Export Plug-In . SVG Version: 6.00 Build 0)  -->
<svg version="1.1" id="Layer_1" xmlns="http://www.w3.org/2000/svg" xmlns:xlink="http://www.w3.org/1999/xlink" x="0px" y="0px"
	 viewBox="0 0 287.3 116.2" style="enable-background:new 0 0 287.3 116.2;" xml:space="preserve">
<style type="text/css">
	.st0{clip-path:url(#SVGID_2_);}
	.st1{fill:#FFFFFF;}
</style>
<g>
	<defs>
		<rect id="SVGID_1_" x="-19.2" y="-26" width="328.2" height="181"/>
	</defs>
	<clipPath id="SVGID_2_">
		<use xlink:href="#SVGID_1_"  style="overflow:visible;"/>
	</clipPath>
	<g class="st0">
		<path class="st1" d="M0,114.1c0.1-2.8,0.2-18.2,0.2-22.7v-7C0.2,82.9,0,69.7,0,68.8c12.2,0,20,0.3,25.3,1.6
			c6.4,1.6,12,5.4,12,12.6c0,8.3-7.7,17.3-23.2,19.9v1.7c0,1.3,0,8.3,0.1,9.6L0,114.1z M14.1,93.8c3.7-0.6,8.7-3.8,8.7-9.1
			c0-3.6-1.9-6.5-8.7-7V93.8z"/>
		<path class="st1" d="M59.9,94.5c0,2.4,0.2,18.6,0.3,19.6H45.9c0.3-1.5,0.1-21.8,0.1-23.2v-5.2c0-1.9-0.1-15.8-0.3-17
			c8.8,0,17.7,0.1,23.4,0.9c9.5,1.2,14.6,4.9,14.6,10.8c0,5.2-3.3,9.3-8.3,12.8c1.9,2.2,11.7,12.1,13.4,14.1l-11.7,8.8
			c-1.5-2.4-13.9-20.4-15.6-23.2c2.8-1.7,7.4-5.2,7.4-9.5c0-3-2.1-5.9-9-6L59.9,94.5z"/>
		<path class="st1" d="M109.9,94.8c0,6.4,0.2,17.8,0.3,19.3H95.3c0.1-2.8,0.2-17.8,0.2-19.4v-6.9c0-1.1-0.2-17.5-0.2-19.1h14.8
			c-0.1,1.2-0.3,11.5-0.3,19.2L109.9,94.8z"/>
		<path class="st1" d="M121.5,114.1c0.4-4.6,1.9-37.3,2.6-45.8l0.6-0.4c9.1,6.7,29.6,22.2,31.9,23.9c0-3.5-0.2-20.7-0.1-23.4
			l13.1,0.3c-0.4,5-1,14.5-1.5,23.9s-1,18.4-1.1,22.5l-0.6,0.3c-7.7-5-30.8-23.3-31.7-24.1c0,2.6,0.1,21.1,0.1,23.2L121.5,114.1z"/>
		<path class="st1" d="M212.3,114.6c-2.5,0.3-5,0.5-7.6,0.5c-21,0-28.7-10.7-28.7-19.3c0-10.6,9.7-23.5,31.7-28.2l2.8,12.3
			c-13.5,2.4-18.9,8.3-18.9,14.3c0,4.9,5.4,9,13.9,9c2.6,0,4.6-0.2,6.1-0.3L212.3,114.6z"/>
		<path class="st1" d="M236.3,94.8c0,6.4,0.2,17.8,0.3,19.3h-14.8c0.1-2.8,0.2-17.8,0.2-19.4v-6.9c0-1.1-0.2-17.5-0.2-19.1h14.8
			c-0.1,1.2-0.3,11.5-0.3,19.2V94.8z"/>
		<path class="st1" d="M249.9,114.1c0.1-2.8,0.2-18.2,0.2-22.7v-7c0-1.5-0.2-14.7-0.2-15.7c12.2,0,20,0.3,25.3,1.6
			c6.4,1.6,12,5.4,12,12.6c0,8.3-7.7,17.3-23.2,19.9v1.7c0,1.3,0,8.3,0.1,9.6L249.9,114.1z M264.1,93.8c3.7-0.6,8.7-3.8,8.7-9.1
			c0-3.6-1.9-6.5-8.7-7V93.8z"/>
		<path class="st1" d="M45.7,43.2l8.1-6.5l1.2,1.5c0.3-0.9,0.7-1.8,1.1-2.7c0.3-0.5,0.6-1,0.9-1.4c0.4-0.4,0.8-0.8,1.3-1.2l5.7,7.2
			c-0.4,0.4-0.8,0.9-1.2,1.3c-0.3,0.4-0.6,0.8-0.9,1.2c-0.2,0.4-0.4,0.8-0.5,1.3c-0.1,0.7-0.2,1.3-0.1,2l9.2,11.5L62.3,64L45.7,43.2
			z"/>
		<path class="st1" d="M88.6,37l2.9-1.6l1.1-0.6l1.6,8.2l-2.6,1.4c-2.5,1.3-5.1,2.5-7.8,3.3c-3,0.9-6.3,0.7-9.2-0.7
			c-3.3-1.4-6.1-3.9-7.7-7.1c-1-1.7-1.5-3.6-1.7-5.5c-0.1-1.8,0.4-3.6,1.3-5.2c0.9-1.7,3.5-3.7,7.7-5.9c1.6-0.9,3.3-1.7,5-2.3
			c1.3-0.4,2.6-0.7,3.9-0.7c2.4,0,4.6,1.5,5.6,3.7c1,1.6,1.4,3.6,1.1,5.5c-0.2,1.2-0.6,2.5-1,3.7c-0.3,0.8-0.9,2.2-1.8,4.2L88.6,37z
			 M78,38c1-1.2,1.8-2.5,2.4-4c0.4-1,0.4-2,0-3c-0.5-0.9-1.4-1-2.9-0.2c-0.9,0.4-1.5,1.2-1.8,2.2c-0.2,1,0,2.1,0.5,3
			c0.2,0.4,0.4,0.7,0.6,1C77.3,37.4,77.7,37.7,78,38z"/>
		<path class="st1" d="M99.3,32.3l0.9-0.3c0.5-0.1,0.9-0.3,1.3-0.7c0.3-0.3,0.4-0.8,0.2-1.2c-0.2-0.4-0.5-0.8-0.9-1.1l-4.9-3
			c-1.6-0.9-2.8-2.3-3.4-4c-0.6-1.7-0.3-3.7,0.8-5.1c1.4-1.7,3.3-2.9,5.4-3.5l8.3-2.6l4.8,7.2l-3.5,1.1c-1.6,0.5-2.3,1.2-2.1,1.9
			c0.2,0.5,0.6,0.8,1,1.1l5,3.2c1.5,0.8,2.6,2.2,3.1,3.8c0.6,1.7,0.4,3.7-0.6,5.2c-1.2,1.7-3,2.9-5.1,3.4l-9.9,3.1L95,33.6
			L99.3,32.3z"/>
		<path class="st1" d="M113.1,9.3l2.1-0.3l-0.7-4.5l10-4.4l1.1,7.3l4.6-0.7l1.3,8.3l-4.6,0.7l1.1,6.9c0.1,0.5,0.2,1,0.3,1.5
			c0.2,0.3,0.4,0.5,0.6,0.6c0.3,0.2,0.6,0.4,0.9,0.4c0.5,0,1,0,1.5-0.1l2.9-0.5l-1.2,8.6l-4.9,0.8c-5.9,0.9-9.3-1.7-10.3-7.9
			l-1.4-8.7l-2,0.3L113.1,9.3z"/>
		<path class="st1" d="M134.7,16c0.1-4.1,1-6.8,2.7-7.9c1.4-1,3.1-1.8,4.8-2.1c2.2-0.3,4.4-0.4,6.7-0.3c2.2,0,4.4,0.2,6.5,0.5
			c1.7,0.4,3.3,1.2,4.7,2.2c1.8,1.2,2.6,3.9,2.6,8.2c0,1.2-0.2,2.4-0.4,3.6c-0.7,2.6-1.5,5.1-2.5,7.5c-1.4,3.9-5.2,5.7-11.4,5.6
			c-1.9,0-3.8-0.4-5.6-1.1c-1.6-0.8-3.1-2-4.1-3.5c-1.2-1.6-2.2-3.3-2.9-5.2c-0.7-1.9-1.1-4-1-6L134.7,16z M145.4,18.2
			c-0.1,1.6,0.2,3.2,0.9,4.6c0.6,1.3,1.4,2,2.1,2c1.2,0,2.1-0.9,2.6-2.7c0.4-1.4,0.7-2.8,0.8-4.3c0.1-2.6-1-3.9-3.1-3.9
			s-3.3,1.2-3.4,3.8L145.4,18.2z"/>
		<path class="st1" d="M168.9,7.6l10.2,2l-0.4,1.9c0.9-0.4,1.8-0.7,2.8-0.9c0.6-0.1,1.1-0.2,1.7-0.2c0.6,0,1.2,0.1,1.8,0.2l-1.8,9
			c-0.6-0.1-1.2-0.1-1.8-0.1c-0.5,0-1,0-1.5,0.1c-0.5,0.1-0.9,0.2-1.3,0.4c-0.6,0.3-1.1,0.7-1.6,1.2l-2.8,14.5l-10.4-2L168.9,7.6z"
			/>
		<path class="st1" d="M195.6,42.5c-2.4-0.9-4.6-2.1-6.5-3.7c-2-1.9-3.5-4.2-4.4-6.8c-1.3-3.1-1.2-6.6,0.4-10.6
			c1.2-3.2,3.1-5.3,5.7-6.3c2.6-0.9,5.7-0.7,9.3,0.7l14,5.4l-9.6,24.8L195.6,42.5z M197.5,34.4l3.7-9.3l-2.3-0.9
			c-2.1-0.8-3.6-0.1-4.5,2.1c-0.5,1.2-0.5,2.5-0.2,3.7c0.2,0.9,0.5,1.8,1.1,2.6C195.9,33.3,196.7,33.9,197.5,34.4z"/>
		<path class="st1" d="M221.1,24.8l12.7,8.5c5.9,3.9,6.9,8.7,3.1,14.3l-9.2,13.7l-8.8-5.9l8.4-12.5c0.2-0.3,0.4-0.7,0.6-1
			c0.2-0.4,0.3-0.8,0.2-1.2c0-0.4-0.2-0.7-0.4-1c-0.3-0.4-0.7-0.7-1.1-0.9l-1.5-1l-10.1,15l-8.8-5.9L221.1,24.8z"/>
	</g>
</g>
</svg>
