<svg xmlns="http://www.w3.org/2000/svg" width="22.875" height="22.875" viewBox="0 0 22.875 22.875">
  <path id="Icon_awesome-phone-alt" data-name="Icon awesome-phone-alt" d="M22.222,16.164l-5-2.145a1.072,1.072,0,0,0-1.251.308l-2.216,2.707A16.56,16.56,0,0,1,5.835,9.119L8.542,6.9a1.07,1.07,0,0,0,.308-1.251l-2.145-5A1.079,1.079,0,0,0,5.477.027L.831,1.1A1.072,1.072,0,0,0,0,2.145a20.728,20.728,0,0,0,20.73,20.73,1.072,1.072,0,0,0,1.045-.831L22.848,17.4A1.085,1.085,0,0,0,22.222,16.164Z" transform="translate(0 0)" fill="#f2be3a"/>
</svg>
